<svg xmlns="http://www.w3.org/2000/svg" xmlns:xlink="http://www.w3.org/1999/xlink" width="27" height="26.971" viewBox="0 0 27 26.971">
  <defs>
    <linearGradient id="linear-gradient" x1="0.5" x2="0.5" y2="1" gradientUnits="objectBoundingBox">
      <stop offset="0" stop-color="#576195"/>
      <stop offset="1" stop-color="#3a95ce"/>
    </linearGradient>
  </defs>
  <g id="svgexport-6_11_" data-name="svgexport-6 (11)" transform="translate(0 -0.256)">
    <path id="Path_6" data-name="Path 6" d="M260.113.256A27.315,27.315,0,0,1,263.668,7.5,15.658,15.658,0,0,0,269,5.637l.484-.3A13.519,13.519,0,0,0,260.113.256Z" transform="translate(-245.364 0)" fill="url(#linear-gradient)"/>
    <path id="Path_7" data-name="Path 7" d="M177.555,166.4a29.737,29.737,0,0,1-6.774,0,18.486,18.486,0,0,0-.455,3.1h7.684A18.485,18.485,0,0,0,177.555,166.4Z" transform="translate(-160.668 -156.723)" fill="url(#linear-gradient)"/>
    <path id="Path_8" data-name="Path 8" d="M190.588,340.48a28.077,28.077,0,0,0-2.855.148,25.975,25.975,0,0,0,2.855,5.912,25.978,25.978,0,0,0,2.855-5.912A28.077,28.077,0,0,0,190.588,340.48Z" transform="translate(-177.088 -320.932)" fill="url(#linear-gradient)"/>
    <path id="Path_9" data-name="Path 9" d="M332.152,255.147a20.5,20.5,0,0,1-.462,3.393,17.322,17.322,0,0,1,5.849,2.1l.547.341a13.458,13.458,0,0,0,1.8-5.835Z" transform="translate(-312.882 -240.438)" fill="url(#linear-gradient)"/>
    <path id="Path_10" data-name="Path 10" d="M338.086,118.118l-.547.341a17.323,17.323,0,0,1-5.849,2.107,20.5,20.5,0,0,1,.462,3.387h7.73A13.459,13.459,0,0,0,338.086,118.118Z" transform="translate(-312.882 -111.179)" fill="url(#linear-gradient)"/>
    <path id="Path_11" data-name="Path 11" d="M170.325,255.147a18.473,18.473,0,0,0,.457,3.1,29.844,29.844,0,0,1,6.774,0,18.478,18.478,0,0,0,.453-3.1Z" transform="translate(-160.667 -240.438)" fill="url(#linear-gradient)"/>
    <path id="Path_12" data-name="Path 12" d="M2.343,118.459l-.547-.341A13.459,13.459,0,0,0,0,123.953H7.73a20.5,20.5,0,0,1,.462-3.387A17.323,17.323,0,0,1,2.343,118.459Z" transform="translate(0 -111.179)" fill="url(#linear-gradient)"/>
    <path id="Path_13" data-name="Path 13" d="M56.655,348.109a15.675,15.675,0,0,0-5.329,1.866l-.484.3a13.514,13.514,0,0,0,9.368,5.08A27.292,27.292,0,0,1,56.655,348.109Z" transform="translate(-47.959 -328.128)" fill="url(#linear-gradient)"/>
    <path id="Path_14" data-name="Path 14" d="M190.588,28.826a25.989,25.989,0,0,0-2.855,5.911,27.6,27.6,0,0,0,5.71,0A25.989,25.989,0,0,0,190.588,28.826Z" transform="translate(-177.088 -26.95)" fill="url(#linear-gradient)"/>
    <path id="Path_15" data-name="Path 15" d="M268.949,349.974a15.677,15.677,0,0,0-5.329-1.866,27.288,27.288,0,0,1-3.557,7.246,13.515,13.515,0,0,0,9.368-5.08Z" transform="translate(-245.316 -328.128)" fill="url(#linear-gradient)"/>
    <path id="Path_16" data-name="Path 16" d="M50.893,5.338l.481.3A15.659,15.659,0,0,0,56.7,7.5,27.312,27.312,0,0,1,60.261.257,13.519,13.519,0,0,0,50.893,5.338Z" transform="translate(-48.007 -0.001)" fill="url(#linear-gradient)"/>
    <path id="Path_17" data-name="Path 17" d="M7.73,255.147H0a13.458,13.458,0,0,0,1.8,5.835l.547-.341a17.323,17.323,0,0,1,5.849-2.1A20.485,20.485,0,0,1,7.73,255.147Z" transform="translate(0 -240.438)" fill="url(#linear-gradient)"/>
  </g>
</svg>
